<svg width="96" height="60" viewBox="0 0 96 60" fill="none" xmlns="http://www.w3.org/2000/svg">
<path d="M22.3938 59H41.5679C42.825 21.7744 47.2237 9.04039 64.3395 1.56923C37.7139 -1.07164 26.3342 6.00037 22.3938 59Z" fill="#386C54"/>
<path d="M1 59H20.0593C20.408 23.7126 24.1931 9.31291 42.9074 1.56923C15.999 -1.50838 4.9618 6.56212 1 59Z" fill="#386C54"/>
<path d="M44.2852 59H70.2716C69.4819 22.8933 73.0676 9.61434 94 4.60992C60.9889 -4.69216 49.4353 3.64649 44.2852 59Z" fill="#386C54"/>
<path d="M22.3938 59H41.5679C42.825 21.7744 47.2237 9.04039 64.3395 1.56923C37.7139 -1.07164 26.3342 6.00037 22.3938 59Z" stroke="#386C54"/>
<path d="M1 59H20.0593C20.408 23.7126 24.1931 9.31291 42.9074 1.56923C15.999 -1.50838 4.9618 6.56212 1 59Z" stroke="#386C54"/>
<path d="M44.2852 59H70.2716C69.4819 22.8933 73.0676 9.61434 94 4.60992C60.9889 -4.69216 49.4353 3.64649 44.2852 59Z" stroke="#386C54"/>
</svg>
